<?xml version="1.0" encoding="UTF-8" standalone="no"?> <svg width="512" height="512" viewBox="0 0 512 512" fill="none" xmlns="http://www.w3.org/2000/svg">
<path fill-rule="evenodd" clip-rule="evenodd" d="M246.495 78.2637C250.702 70.8818 261.298 70.8818 265.505 78.2637L461.828 422.804C466.024 430.168 460.702 439.273 452.323 439.273H59.6768C51.2977 439.273 45.9758 430.168 50.1721 422.804L246.495 78.2637ZM300.808 58.072C281 23.3093 231 23.3094 211.192 58.072L14.8686 402.612C-4.76523 437.069 20.0248 480 59.6768 480H452.323C491.975 480 516.765 437.069 497.131 402.612L300.808 58.072ZM321.042 313.018V337.455C321.042 372.614 293.248 401.27 258.472 402.572C276.669 401.528 286.829 383.004 275.855 369.689C273.13 366.383 270.873 364.438 268.737 362.598C264.797 359.202 261.273 356.166 256 345.6C250.727 356.166 247.204 359.202 243.263 362.598C241.128 364.438 238.87 366.383 236.146 369.689C225.172 383.004 235.331 401.528 253.529 402.572C218.752 401.27 190.958 372.614 190.958 337.455V321.164C190.958 303.169 176.398 288.582 158.437 288.582H190.958C208.919 288.582 223.479 303.169 223.479 321.164V302.662C223.479 288.873 230.7 276.096 242.502 269.001C254.193 261.974 257.485 246.488 249.666 235.298L235.675 215.273H247.87C270.321 215.273 288.521 233.507 288.521 256V321.164C288.521 303.169 303.081 288.582 321.042 288.582H345.433C331.962 288.582 321.042 299.522 321.042 313.018Z" fill="black"/>
</svg>
