<?xml version="1.0" encoding="utf-8"?>
<!-- Generator: Adobe Illustrator 21.1.0, SVG Export Plug-In . SVG Version: 6.00 Build 0)  -->
<svg version="1.1" id="Layer_1" xmlns="http://www.w3.org/2000/svg" xmlns:xlink="http://www.w3.org/1999/xlink" x="0px" y="0px"
	 viewBox="0 0 400 400" style="enable-background:new 0 0 400 400;" xml:space="preserve">
<style type="text/css">
	.st0{fill:#1A1A1A;}
</style>
<g id="Layer_x0020_1">
	<polygon class="st0" points="101.2,314.8 104,304 106,298.8 108.7,298.1 108.9,297.3 109.6,286.2 107.8,269.1 106,251.7 
		106.5,230.9 109.1,219 110.3,215.8 110.7,212.7 123.3,203.2 135.6,199.7 151.5,191.5 171.8,178.5 179.4,174 184.7,163.9 189,150.5 
		194.3,148.2 196.7,145 202.3,140.5 208.3,131 216.9,106.9 223.9,82.9 233.9,54.6 237.5,42.8 240.4,39.6 235.5,35.9 234.4,29.8 
		236.2,28.7 240.9,30.7 245.9,34.2 250.8,30.8 251.3,28.1 247.5,20.9 245.7,21.2 244.2,19.2 248.1,15.7 253.2,15.9 253.5,17.5 
		252.4,19.2 255,24 257.4,27.7 258.4,27.9 258.7,19 258.7,19 258.8,18.1 257,17.3 257.2,15.5 258.3,15.5 265.4,15.7 266.3,17.3 
		264.3,18.8 264.3,22.7 264.5,29.4 268.7,29.2 271.6,31.3 275.2,36.8 280.7,38.9 288.7,43.3 296.9,49.4 300,53.6 298.3,58.5 
		298,59.5 298,59.5 297.8,59.9 297.3,61.7 294.3,61.4 282,59.8 276,60.4 267.1,60.4 263.1,59.1 256.8,65 251.8,89.4 249.8,117.4 
		248.4,122.2 246.3,129.8 246.3,129.8 242.8,141.8 235.2,168.4 234.9,194.8 237.2,211.1 233.5,228.9 230.3,233 229.1,247.4 
		227.6,262.1 221.6,277.1 220,289.9 219.6,296.8 220,301.8 220.5,305.1 218.3,309.2 216.7,313.5 215.8,327.9 215.8,353.4 
		215.4,356.3 218.3,360.4 220.3,366 221.4,373 220,374.3 216.2,374.3 216.3,374.4 216.9,378.9 210.3,380.6 201.7,379.3 198.3,378 
		198.3,375.4 198.7,374.2 198.7,374.2 200,369.8 198.5,369 198.5,369 196.3,367.9 194,364 197,355.2 199.3,329.5 200.3,312.9 
		197.7,309.3 197.9,307.9 197.9,307.9 199,300.5 195.7,273.8 191.7,262.1 190.2,263.2 190.2,263.2 182.7,268.6 160.1,273.8 
		157.2,273 154.7,289.7 148.3,307 145.2,316.6 146.8,324 153.9,353.4 156.3,364.9 158.7,368 161.8,374.7 159.4,376.4 151.6,376.4 
		147.9,375.4 147.9,370.6 146.1,367.3 144.8,365.4 146.5,360.2 145.4,350.2 139,332.4 133,319.6 131.7,315 130.9,320 127.6,328.2 
		128.9,346.1 131.3,365.6 132.6,369.8 136.2,375.4 136.3,375.6 136.3,375.6 138.2,382.5 131.3,383.5 122.6,384.5 120.6,381.2 
		122.3,374 119,371.8 119,363 119.3,350 118,332.4 117.8,331.6 117.8,331.6 115,319.4 118.6,309.3 118.3,283.9 111.3,259.2 
		109.7,242.4 108.7,250.4 110,263.4 111.8,279.1 112,291.4 110.1,299.1 111.1,301.2 109.8,308.8 107.6,317.2 104.7,326.6 
		104.5,338.3 105.8,344.1 102.3,339.6 100,325 	"/>
</g>
</svg>
